<svg width="300" height="300" viewBox="0 0 300 300" fill="none" xmlns="http://www.w3.org/2000/svg">
<rect width="300" height="300" rx="150" fill="#FF5512" style="fill:#FF5512;fill:color(display-p3 1.0000 0.3333 0.0706);fill-opacity:1;"/>
<path d="M224.214 157.659C223.755 157.413 223.953 156.781 224.482 156.789C238.385 157.815 245.091 142.967 246.897 135.995C253.868 108.919 225.882 98.2747 216.873 95.5892C215.363 95.1344 214.557 93.5716 214.941 92.0689L220.435 70.235C220.86 68.6508 219.936 67.1504 218.347 66.727L212.339 65.1906C210.75 64.7671 209.087 65.6278 208.671 67.2144L203.243 89.0338C202.837 90.6228 201.142 91.4045 199.553 91.0218L185.321 87.5027C183.729 87.0888 182.91 85.665 183.291 84.0904L188.782 62.2254C189.197 60.6387 188.236 59.0475 186.646 58.624L180.646 57.0996C179.057 56.6761 177.458 57.6445 177.033 59.2287L171.479 80.895C171.055 82.4793 169.375 83.57 167.795 83.1896L160.693 81.3726L140.749 76.4411C139.16 76.0176 137.505 76.6363 137.09 78.223L135.4 85.3458C134.985 86.9324 135.968 88.4374 137.557 88.8609L153.46 92.9254C155.049 93.3489 155.98 94.9426 155.596 96.5268L133.289 185.652C132.865 187.237 130.701 188.014 129.11 187.641L115.317 184.119C113.956 183.762 112.525 184.426 111.908 185.718L108.411 193.127C107.619 194.794 108.803 197.173 110.58 197.622L136.707 204.123C138.296 204.547 139.097 205.966 138.715 207.54L132.867 230.925C132.442 232.509 133.413 234.103 135.003 234.526L141.011 236.063C142.6 236.486 144.544 235.603 144.96 234.017L150.722 210.611C151.146 209.026 152.613 208.015 154.202 208.398L167.386 211.699C168.975 212.122 169.939 213.785 169.558 215.36L163.726 238.799C163.301 240.384 164.133 241.963 165.715 242.375L171.723 243.911C173.312 244.334 174.954 243.194 175.379 241.609L181.118 218.625C181.53 217.007 183.362 215.964 184.953 216.419C196.374 219.629 226.942 227.524 240.027 199.181C251.574 174.184 232.399 161.647 224.234 157.664L224.214 157.659ZM178.565 103.743C179.519 102.412 180.971 101.458 182.483 101.699C229.144 109.288 219.981 132.25 219.981 132.25C213.912 155.824 181.312 144.894 172.154 141.286C170.788 140.745 170.017 139.252 169.836 137.68L178.575 103.745L178.565 103.743ZM213.818 186.931C207.647 210.917 168.316 198.852 157.919 195.223C156.481 194.725 155.962 193.691 156.358 192.221L165.466 155.08C165.853 153.609 167.305 152.655 168.807 152.894C224.109 161.653 213.809 186.929 213.809 186.929L213.818 186.931Z" fill="white" style="fill:white;fill-opacity:1;"/>
<path d="M127.639 152.606L128.505 149.126C131.376 137.584 126.054 128.656 114.601 125.824L79.8376 117.228C76.5776 116.422 75.5172 114.776 76.2757 111.728L77.0723 108.526C77.6662 106.138 80.7346 104.719 82.8213 105.235L135.154 118.175L138.705 103.9L86.3728 90.9607C75.3235 88.2287 66.0274 93.9186 63.244 105.106L62.4473 108.308C59.4731 120.263 64.4992 128.782 76.2408 131.685L111.014 140.283C114.379 141.115 115.437 142.69 114.686 145.709L113.82 149.189C113.226 151.577 110.11 152.984 107.985 152.458L55.5753 139.499L52 153.87L104.409 166.829C115.507 169.573 124.848 163.863 127.648 152.609L127.639 152.606Z" fill="white" style="fill:white;fill-opacity:1;"/>
</svg>
